<mxfile host="app.diagrams.net" modified="2022-01-18T08:40:28.264Z" agent="5.0 (Windows NT 10.0; Win64; x64) AppleWebKit/537.36 (KHTML, like Gecko) Chrome/97.0.4692.71 Safari/537.36" etag="9NbBu4zKUFQUp7gB7XYI" version="16.2.7" type="github">
  <diagram id="YdIZanKLmXwDBbqSDczY" name="Page-1">
    <mxGraphModel dx="1210" dy="660" grid="1" gridSize="10" guides="1" tooltips="1" connect="1" arrows="1" fold="1" page="1" pageScale="1" pageWidth="850" pageHeight="1100" math="0" shadow="0">
      <root>
        <mxCell id="0" />
        <mxCell id="1" parent="0" />
        <mxCell id="pRbmmeZIC94oiXIY9vB7-1" value="&lt;b&gt;&lt;font style=&quot;font-size: 15px&quot;&gt;Archiving / Document Tracking Sytem&lt;br&gt;System Flow&lt;br&gt;&lt;br&gt;&lt;/font&gt;&lt;/b&gt;" style="text;html=1;resizable=0;autosize=1;align=center;verticalAlign=middle;points=[];fillColor=none;strokeColor=none;rounded=0;" parent="1" vertex="1">
          <mxGeometry x="280" y="35" width="290" height="50" as="geometry" />
        </mxCell>
        <mxCell id="pRbmmeZIC94oiXIY9vB7-2" value="&lt;font style=&quot;font-size: 12px&quot;&gt;START&lt;/font&gt;" style="strokeWidth=2;html=1;shape=mxgraph.flowchart.start_2;whiteSpace=wrap;fontSize=15;" parent="1" vertex="1">
          <mxGeometry x="375" y="110" width="100" height="100" as="geometry" />
        </mxCell>
        <mxCell id="pRbmmeZIC94oiXIY9vB7-3" value="Manual Input" style="html=1;strokeWidth=2;shape=manualInput;whiteSpace=wrap;rounded=1;size=26;arcSize=11;fontSize=12;" parent="1" vertex="1">
          <mxGeometry x="375" y="260" width="100" height="60" as="geometry" />
        </mxCell>
        <mxCell id="pRbmmeZIC94oiXIY9vB7-4" value="" style="endArrow=classic;html=1;rounded=0;fontSize=12;entryX=0.498;entryY=0.221;entryDx=0;entryDy=0;entryPerimeter=0;" parent="1" target="pRbmmeZIC94oiXIY9vB7-3" edge="1">
          <mxGeometry width="50" height="50" relative="1" as="geometry">
            <mxPoint x="424" y="210" as="sourcePoint" />
            <mxPoint x="424" y="260" as="targetPoint" />
          </mxGeometry>
        </mxCell>
        <mxCell id="pRbmmeZIC94oiXIY9vB7-5" value="Data" style="shape=parallelogram;html=1;strokeWidth=2;perimeter=parallelogramPerimeter;whiteSpace=wrap;rounded=1;arcSize=12;size=0.23;fontSize=12;" parent="1" vertex="1">
          <mxGeometry x="375" y="360" width="100" height="60" as="geometry" />
        </mxCell>
        <mxCell id="pRbmmeZIC94oiXIY9vB7-6" value="" style="endArrow=classic;html=1;rounded=0;fontSize=12;exitX=0.5;exitY=1;exitDx=0;exitDy=0;entryX=0.5;entryY=0;entryDx=0;entryDy=0;" parent="1" source="pRbmmeZIC94oiXIY9vB7-3" target="pRbmmeZIC94oiXIY9vB7-5" edge="1">
          <mxGeometry width="50" height="50" relative="1" as="geometry">
            <mxPoint x="434" y="220" as="sourcePoint" />
            <mxPoint x="434.625" y="270" as="targetPoint" />
          </mxGeometry>
        </mxCell>
        <mxCell id="pRbmmeZIC94oiXIY9vB7-7" value="System Filter for Roles&lt;br&gt;" style="rounded=1;whiteSpace=wrap;html=1;absoluteArcSize=1;arcSize=14;strokeWidth=2;fontSize=12;" parent="1" vertex="1">
          <mxGeometry x="375" y="470" width="100" height="100" as="geometry" />
        </mxCell>
        <mxCell id="pRbmmeZIC94oiXIY9vB7-10" value="" style="endArrow=classic;html=1;rounded=0;fontSize=12;exitX=0.5;exitY=1;exitDx=0;exitDy=0;entryX=0.5;entryY=0;entryDx=0;entryDy=0;" parent="1" source="pRbmmeZIC94oiXIY9vB7-5" target="pRbmmeZIC94oiXIY9vB7-7" edge="1">
          <mxGeometry width="50" height="50" relative="1" as="geometry">
            <mxPoint x="435" y="330" as="sourcePoint" />
            <mxPoint x="435" y="370" as="targetPoint" />
          </mxGeometry>
        </mxCell>
        <mxCell id="pRbmmeZIC94oiXIY9vB7-23" value="Yes" style="edgeStyle=orthogonalEdgeStyle;rounded=0;orthogonalLoop=1;jettySize=auto;html=1;exitX=0.5;exitY=1;exitDx=0;exitDy=0;exitPerimeter=0;entryX=0.5;entryY=0;entryDx=0;entryDy=0;fontSize=12;" parent="1" source="pRbmmeZIC94oiXIY9vB7-11" target="pRbmmeZIC94oiXIY9vB7-15" edge="1">
          <mxGeometry relative="1" as="geometry" />
        </mxCell>
        <mxCell id="pRbmmeZIC94oiXIY9vB7-11" value="Is Admin?" style="strokeWidth=2;html=1;shape=mxgraph.flowchart.decision;whiteSpace=wrap;fontSize=12;" parent="1" vertex="1">
          <mxGeometry x="190" y="570" width="100" height="100" as="geometry" />
        </mxCell>
        <mxCell id="pRbmmeZIC94oiXIY9vB7-33" style="edgeStyle=orthogonalEdgeStyle;rounded=0;orthogonalLoop=1;jettySize=auto;html=1;exitX=0.5;exitY=1;exitDx=0;exitDy=0;entryX=0.5;entryY=0;entryDx=0;entryDy=0;entryPerimeter=0;fontSize=12;" parent="1" source="pRbmmeZIC94oiXIY9vB7-15" target="pRbmmeZIC94oiXIY9vB7-17" edge="1">
          <mxGeometry relative="1" as="geometry" />
        </mxCell>
        <mxCell id="pRbmmeZIC94oiXIY9vB7-15" value="Full Access/System Filter All access" style="rounded=1;whiteSpace=wrap;html=1;absoluteArcSize=1;arcSize=14;strokeWidth=2;fontSize=12;" parent="1" vertex="1">
          <mxGeometry x="190" y="720" width="100" height="100" as="geometry" />
        </mxCell>
        <mxCell id="pRbmmeZIC94oiXIY9vB7-17" value="&lt;br&gt;All Division Records" style="strokeWidth=2;html=1;shape=mxgraph.flowchart.database;whiteSpace=wrap;fontSize=12;" parent="1" vertex="1">
          <mxGeometry x="190" y="870" width="100" height="80" as="geometry" />
        </mxCell>
        <mxCell id="pRbmmeZIC94oiXIY9vB7-24" value="No" style="endArrow=classic;startArrow=classic;html=1;rounded=0;fontSize=12;exitX=0.5;exitY=0;exitDx=0;exitDy=0;exitPerimeter=0;entryX=0;entryY=0.5;entryDx=0;entryDy=0;" parent="1" source="pRbmmeZIC94oiXIY9vB7-11" target="pRbmmeZIC94oiXIY9vB7-7" edge="1">
          <mxGeometry x="0.0056" y="-17" width="50" height="50" relative="1" as="geometry">
            <mxPoint x="240" y="560" as="sourcePoint" />
            <mxPoint x="370" y="520" as="targetPoint" />
            <Array as="points">
              <mxPoint x="240" y="520" />
              <mxPoint x="320" y="520" />
            </Array>
            <mxPoint as="offset" />
          </mxGeometry>
        </mxCell>
        <mxCell id="pRbmmeZIC94oiXIY9vB7-29" value="Yes&lt;br&gt;" style="edgeStyle=orthogonalEdgeStyle;rounded=0;orthogonalLoop=1;jettySize=auto;html=1;exitX=0.5;exitY=1;exitDx=0;exitDy=0;exitPerimeter=0;fontSize=12;" parent="1" source="pRbmmeZIC94oiXIY9vB7-25" target="pRbmmeZIC94oiXIY9vB7-28" edge="1">
          <mxGeometry y="20" relative="1" as="geometry">
            <mxPoint as="offset" />
          </mxGeometry>
        </mxCell>
        <mxCell id="pRbmmeZIC94oiXIY9vB7-25" value="Is Division&lt;br&gt;Personel" style="strokeWidth=2;html=1;shape=mxgraph.flowchart.decision;whiteSpace=wrap;fontSize=12;" parent="1" vertex="1">
          <mxGeometry x="570" y="570" width="100" height="100" as="geometry" />
        </mxCell>
        <mxCell id="pRbmmeZIC94oiXIY9vB7-27" value="No" style="endArrow=classic;startArrow=classic;html=1;rounded=0;fontSize=12;entryX=0.5;entryY=0;entryDx=0;entryDy=0;entryPerimeter=0;exitX=1;exitY=0.5;exitDx=0;exitDy=0;" parent="1" source="pRbmmeZIC94oiXIY9vB7-7" target="pRbmmeZIC94oiXIY9vB7-25" edge="1">
          <mxGeometry x="0.0769" y="-10" width="50" height="50" relative="1" as="geometry">
            <mxPoint x="400" y="680" as="sourcePoint" />
            <mxPoint x="450" y="630" as="targetPoint" />
            <Array as="points">
              <mxPoint x="620" y="520" />
            </Array>
            <mxPoint as="offset" />
          </mxGeometry>
        </mxCell>
        <mxCell id="pRbmmeZIC94oiXIY9vB7-31" style="edgeStyle=orthogonalEdgeStyle;rounded=0;orthogonalLoop=1;jettySize=auto;html=1;exitX=0.5;exitY=1;exitDx=0;exitDy=0;fontSize=12;" parent="1" source="pRbmmeZIC94oiXIY9vB7-28" target="pRbmmeZIC94oiXIY9vB7-30" edge="1">
          <mxGeometry relative="1" as="geometry" />
        </mxCell>
        <mxCell id="pRbmmeZIC94oiXIY9vB7-28" value="Filtered Access/" style="rounded=1;whiteSpace=wrap;html=1;absoluteArcSize=1;arcSize=14;strokeWidth=2;fontSize=12;" parent="1" vertex="1">
          <mxGeometry x="570" y="710" width="100" height="100" as="geometry" />
        </mxCell>
        <mxCell id="pRbmmeZIC94oiXIY9vB7-30" value="&lt;br&gt;Filtered Records&lt;br&gt;per Division" style="strokeWidth=2;html=1;shape=mxgraph.flowchart.database;whiteSpace=wrap;fontSize=12;" parent="1" vertex="1">
          <mxGeometry x="570" y="870" width="100" height="80" as="geometry" />
        </mxCell>
      </root>
    </mxGraphModel>
  </diagram>
</mxfile>
